<svg xmlns="http://www.w3.org/2000/svg" viewBox="0 0 500 500"><g id="freepik--background-complete--inject-170"><rect y="382.4" width="500" height="0.25" style="fill:#ebebeb"></rect><rect x="416.78" y="398.49" width="33.12" height="0.25" style="fill:#ebebeb"></rect><rect x="322.53" y="401.21" width="8.69" height="0.25" style="fill:#ebebeb"></rect><rect x="396.59" y="389.21" width="19.19" height="0.25" style="fill:#ebebeb"></rect><rect x="52.46" y="390.89" width="43.19" height="0.25" style="fill:#ebebeb"></rect><rect x="104.56" y="390.89" width="6.33" height="0.25" style="fill:#ebebeb"></rect><rect x="131.47" y="395.11" width="93.68" height="0.25" style="fill:#ebebeb"></rect><path d="M237,337.8H43.91a5.71,5.71,0,0,1-5.7-5.71V60.66A5.71,5.71,0,0,1,43.91,55H237a5.71,5.71,0,0,1,5.71,5.71V332.09A5.71,5.71,0,0,1,237,337.8ZM43.91,55.2a5.46,5.46,0,0,0-5.45,5.46V332.09a5.46,5.46,0,0,0,5.45,5.46H237a5.47,5.47,0,0,0,5.46-5.46V60.66A5.47,5.47,0,0,0,237,55.2Z" style="fill:#ebebeb"></path><path d="M453.31,337.8H260.21a5.72,5.72,0,0,1-5.71-5.71V60.66A5.72,5.72,0,0,1,260.21,55h193.1A5.71,5.71,0,0,1,459,60.66V332.09A5.71,5.71,0,0,1,453.31,337.8ZM260.21,55.2a5.47,5.47,0,0,0-5.46,5.46V332.09a5.47,5.47,0,0,0,5.46,5.46h193.1a5.47,5.47,0,0,0,5.46-5.46V60.66a5.47,5.47,0,0,0-5.46-5.46Z" style="fill:#ebebeb"></path><rect x="191.2" y="88.95" width="110.55" height="41.41" style="fill:#ebebeb"></rect><rect x="224.8" y="91.06" width="43.35" height="18.59" style="fill:#e0e0e0"></rect><rect x="242.28" y="116.64" width="8.38" height="8.38" style="fill:#e0e0e0"></rect><rect x="198.18" y="100.36" width="18.2" height="16.29" style="fill:#e0e0e0"></rect><rect x="276.57" y="100.36" width="18.2" height="16.29" style="fill:#e0e0e0"></rect><rect x="276.57" y="93.17" width="18.2" height="2.9" style="fill:#fafafa"></rect><rect x="198.18" y="93.17" width="18.2" height="2.9" style="fill:#fafafa"></rect><rect x="232.01" y="119.38" width="7.19" height="2.9" style="fill:#fafafa"></rect><rect x="253.75" y="119.38" width="7.19" height="2.9" style="fill:#fafafa"></rect><polygon points="358.34 96.07 371.78 85.07 378.52 82.96 386.17 88.95 382.21 103.26 358.34 96.07" style="fill:#f0f0f0"></polygon><polygon points="369.81 93.17 353.46 93.17 346.87 96.07 358.34 96.07 350.56 106.96 361.35 116.64 373.85 112.01 374.82 122.28 380.89 119.38 382.21 103.26 369.81 93.17" style="fill:#ebebeb"></polygon><polygon points="361.35 96.07 369.81 93.17 382.21 103.26 375.09 109.65 361.35 96.07" style="fill:#e0e0e0"></polygon><path d="M365.86,96.07,95.65,381.39H232L378.52,103.15S375.88,96,365.86,96.07Z" style="fill:#f5f5f5"></path><polygon points="369.81 93.17 371.78 101.41 379.83 107.73 382.21 103.26 369.81 93.17" style="fill:#f0f0f0"></polygon><polygon points="123.48 96.07 110.04 85.07 103.3 82.96 95.65 88.95 99.61 103.26 123.48 96.07" style="fill:#f0f0f0"></polygon><polygon points="112 93.17 128.36 93.17 134.95 96.07 123.48 96.07 131.26 106.96 120.47 116.64 107.97 112.01 106.99 122.28 100.93 119.38 99.61 103.26 112 93.17" style="fill:#ebebeb"></polygon><polygon points="120.47 96.07 112 93.17 99.61 103.26 106.72 109.65 120.47 96.07" style="fill:#e0e0e0"></polygon><path d="M116,96.07l270.2,285.32H249.8L103.3,103.15S105.94,96,116,96.07Z" style="fill:#f5f5f5"></path><polygon points="112 93.17 110.04 101.41 101.98 107.73 99.61 103.26 112 93.17" style="fill:#f0f0f0"></polygon><polygon points="240.47 228.47 194.72 276.78 240.47 365.32 287.33 276.33 240.47 228.47" style="fill:#fafafa"></polygon></g><g id="freepik--Shadow--inject-170"><ellipse id="freepik--path--inject-170" cx="250" cy="416.24" rx="193.89" ry="11.32" style="fill:#f5f5f5"></ellipse></g><g id="freepik--Ring--inject-170"><path d="M412.93,292.87H87.07a2.5,2.5,0,0,1,0-5H412.93a2.5,2.5,0,0,1,0,5Z" style="fill:#263238"></path><path d="M412.93,332.87H87.07a2.5,2.5,0,0,1,0-5H412.93a2.5,2.5,0,0,1,0,5Z" style="fill:#263238"></path><path d="M412.93,372.88H87.07a2.5,2.5,0,0,1,0-5H412.93a2.5,2.5,0,0,1,0,5Z" style="fill:#263238"></path><g style="opacity:0.4"><path d="M412.93,292.87H87.07a2.5,2.5,0,0,1,0-5H412.93a2.5,2.5,0,0,1,0,5Z" style="fill:#fff"></path></g><g style="opacity:0.4"><path d="M412.93,332.87H87.07a2.5,2.5,0,0,1,0-5H412.93a2.5,2.5,0,0,1,0,5Z" style="fill:#fff"></path></g><g style="opacity:0.4"><path d="M412.93,372.88H87.07a2.5,2.5,0,0,1,0-5H412.93a2.5,2.5,0,0,1,0,5Z" style="fill:#fff"></path></g><path d="M114.57,266.87,99.29,264a4.51,4.51,0,0,0-5.35,4.43V401.34a4.5,4.5,0,0,0,3.67,4.43l15.28,2.91a4.51,4.51,0,0,0,5.35-4.43V271.3A4.52,4.52,0,0,0,114.57,266.87Z" style="fill:#407BFF"></path><path d="M83.84,279.11H90.3a2.1,2.1,0,0,1,2.1,2.1v132a0,0,0,0,1,0,0H81.74a0,0,0,0,1,0,0v-132A2.1,2.1,0,0,1,83.84,279.11Z" style="fill:#263238"></path><path d="M83.84,279.11H90.3a2.1,2.1,0,0,1,2.1,2.1v132a0,0,0,0,1,0,0H81.74a0,0,0,0,1,0,0v-132A2.1,2.1,0,0,1,83.84,279.11Z" style="fill:#fff;opacity:0.6000000000000001"></path><path d="M114.57,266.87,99.29,264a4.51,4.51,0,0,0-5.35,4.43V401.34a4.5,4.5,0,0,0,3.67,4.43l15.28,2.91a4.51,4.51,0,0,0,5.35-4.43V271.3A4.52,4.52,0,0,0,114.57,266.87Z" style="fill:#fff;opacity:0.6000000000000001"></path><path d="M385.43,266.87l15.28-2.9a4.51,4.51,0,0,1,5.35,4.43V401.34a4.5,4.5,0,0,1-3.67,4.43l-15.28,2.91a4.51,4.51,0,0,1-5.35-4.43V271.3A4.52,4.52,0,0,1,385.43,266.87Z" style="fill:#407BFF"></path><path d="M407.6,279.11h10.66a0,0,0,0,1,0,0v132a2.1,2.1,0,0,1-2.1,2.1H409.7a2.1,2.1,0,0,1-2.1-2.1v-132A0,0,0,0,1,407.6,279.11Z" transform="translate(825.86 692.31) rotate(-180)" style="fill:#263238"></path><path d="M407.6,279.11h10.66a0,0,0,0,1,0,0v132a2.1,2.1,0,0,1-2.1,2.1H409.7a2.1,2.1,0,0,1-2.1-2.1v-132A0,0,0,0,1,407.6,279.11Z" transform="translate(825.86 692.31) rotate(-180)" style="fill:#fff;opacity:0.6000000000000001"></path><path d="M385.43,266.87l15.28-2.9a4.51,4.51,0,0,1,5.35,4.43V401.34a4.5,4.5,0,0,1-3.67,4.43l-15.28,2.91a4.51,4.51,0,0,1-5.35-4.43V271.3A4.52,4.52,0,0,1,385.43,266.87Z" style="fill:#fff;opacity:0.6000000000000001"></path></g><g id="freepik--character-2--inject-170"><path d="M298,201.84a7,7,0,0,0-9.88.68l-.05.06c-1.71,2-3.39,4-5,6,.08-2.17.19-4.38.31-6.57l.85-14.79v0a3.49,3.49,0,0,0-6.82-1.22c-1.5,4.87-2.71,9.74-3.79,14.71-.51,2.48-1,5-1.43,7.52s-.79,5.11-1,7.85a39.2,39.2,0,0,0-.09,4.41,15.75,15.75,0,0,0,.39,2.89,9.15,9.15,0,0,0,.89,2.35,7.64,7.64,0,0,0,1.45,1.87,7.07,7.07,0,0,0,3.42,1.77,7.16,7.16,0,0,0,3.58-.19,8.52,8.52,0,0,0,1.94-.9,10.13,10.13,0,0,0,1.1-.82c.27-.23.56-.51.71-.65l1.47-1.33c1-.86,1.88-1.77,2.78-2.67l0,0c2.63-2.63,5.12-5.29,7.46-8.11.93-1.09,1.82-2.21,2.69-3.36A7,7,0,0,0,298,201.84Zm-14.73,18a1.15,1.15,0,0,1,.12.37A1.19,1.19,0,0,1,283.25,219.85Z" style="fill:#e9b376"></path><path d="M296.27,214.71c-2.34,2.82-4.83,5.48-7.46,8.11l0,0c.75-6.8,5.82-13,5.82-13A20.53,20.53,0,0,1,296.27,214.71Z" style="opacity:0.2"></path><path d="M339.27,259.15l-37.34,3.1s-10.62-28.44-8.43-62c0,0,7.31,1.38,15.93,2.61,3.35.48,6.9.94,10.29,1.28,3.66.37,7.14.6,10,.59,0,0,.18,2.71.63,7.11.54,5.32,1.46,13.12,2.91,21.64A189.88,189.88,0,0,0,339.27,259.15Z" style="fill:#ebb376"></path><path d="M322.19,205.27l-2.07.34-11.2,1.82-1.33.22L303,205.93a3.27,3.27,0,0,0,1.69-2,3.4,3.4,0,0,0,0-1.78,9.08,9.08,0,0,0-2-3.73l7.71-5.7,2.85-2.11A25.44,25.44,0,0,0,316.6,200a15.51,15.51,0,0,0,3,3.5c.28.24.58.47.88.68A11,11,0,0,0,322.19,205.27Z" style="fill:#ebb376"></path><path d="M302.65,198.42c2.1,2.56,2.36,4.34,2,5.51,5.54-1.83,8-11,8-11-.8-.11-1.58-.18-2.33-.22Z" style="opacity:0.2"></path><path d="M298.66,173.07c-5.38,1.63-4.55,13.56-2.37,15C300.38,190.67,305.34,171,298.66,173.07Z" style="fill:#407BFF"></path><path d="M298.66,173.07c-5.38,1.63-4.55,13.56-2.37,15C300.38,190.67,305.34,171,298.66,173.07Z" style="opacity:0.4"></path><path d="M314.27,184.71c-1.14,6.75-1.46,10.76-5.26,13.88-5.72,4.69-13.77.69-14.67-6.26-.81-6.26,1.19-16.24,8.12-18.24A9.34,9.34,0,0,1,314.27,184.71Z" style="fill:#ebb376"></path><path d="M303.77,185.52c-.06.55-.4,1-.76.93s-.61-.52-.55-1.07.4-1,.76-.94S303.83,185,303.77,185.52Z" style="fill:#263238"></path><path d="M297.52,184.85c-.06.55-.4,1-.76.93s-.61-.52-.55-1.07.4-1,.76-.93S297.58,184.3,297.52,184.85Z" style="fill:#263238"></path><path d="M299.48,185.34a20.11,20.11,0,0,1-3.15,4.45,3.22,3.22,0,0,0,2.59.77Z" style="fill:#de5753"></path><path d="M303.44,191.41a.16.16,0,0,1,.14.16.17.17,0,0,1-.17.16,4.37,4.37,0,0,0-3.62,1.65.16.16,0,0,1-.23.05.17.17,0,0,1,0-.23,4.61,4.61,0,0,1,3.9-1.79Z" style="fill:#263238"></path><path d="M304.82,183.2a.32.32,0,0,1-.25.06,2.58,2.58,0,0,0-2.27.63.33.33,0,0,1-.48-.45,3.25,3.25,0,0,1,2.86-.82.32.32,0,0,1,.27.37A.33.33,0,0,1,304.82,183.2Z" style="fill:#263238"></path><path d="M295.77,181.15a.21.21,0,0,1,0-.11.32.32,0,0,1,.38-.26,3.26,3.26,0,0,1,2.41,1.75.34.34,0,0,1-.18.43.33.33,0,0,1-.43-.17,2.56,2.56,0,0,0-1.92-1.37A.33.33,0,0,1,295.77,181.15Z" style="fill:#263238"></path><path d="M320.88,174.31c-1.19-1.58-8.46-9-26.27-5.41,0,0,1.82,7.13,4.87,8.08,4.1,1.28,9.79-.43,9.79-.43s1.93,2.67,1.22,5.25c-1.84,5.32-1.6,11.24,1.13,11.78,2.13.42,5.84-5.22,7.66-9.75l.22-.55C321,179.38,322,175.82,320.88,174.31Z" style="fill:#407BFF"></path><path d="M320.88,174.31c-1.19-1.58-8.46-9-26.27-5.41,0,0,1.82,7.13,4.87,8.08,4.1,1.28,9.79-.43,9.79-.43s1.93,2.67,1.22,5.25c-1.84,5.32-1.6,11.24,1.13,11.78,2.13.42,5.84-5.22,7.66-9.75l.22-.55C321,179.38,322,175.82,320.88,174.31Z" style="opacity:0.4"></path><path d="M316.54,192.53a6.45,6.45,0,0,1-4.33,2.42c-2.27.25-3-1.86-2.1-3.81.84-1.75,3-4,5.17-3.34A2.92,2.92,0,0,1,316.54,192.53Z" style="fill:#ebb376"></path><path d="M343.22,279.11c-.05.79-6.25,41.28-10.21,55.22,0,0,9.75,12.88,19.12,59.5L344,396.76s-30.35-50.51-30.49-58,2.16-47.55,2.16-47.55Z" style="fill:#ebb376"></path><path d="M297.27,277.6s-35.31,38.58-37.84,45S265,397.74,265,397.74l8.3.58s7.26-39.92,3.32-63.2c0,0,30-28.32,36-38.48Z" style="fill:#ebb376"></path><polygon points="359.14 413.81 351.56 383.78 337.61 388.37 350.64 416.07 359.14 413.81" style="fill:#263238"></polygon><path d="M350.91,411.35l7.74,0a.61.61,0,0,1,.59.47l1.32,6.14a1,1,0,0,1-1,1.22c-2.71-.06-4-.23-7.43-.25-2.09,0-9.45.17-12.35.15s-3.25-2.88-2.07-3.13c5.32-1.13,10.37-2.71,12.08-4.23A1.66,1.66,0,0,1,350.91,411.35Z" style="fill:#263238"></path><polygon points="274.7 415.73 275.74 385.03 262.66 383.72 265.92 415.26 274.7 415.73" style="fill:#263238"></polygon><path d="M265.65,411.35l7.75,0a.6.6,0,0,1,.58.47l1.33,6.14a1,1,0,0,1-1,1.22c-2.7-.06-4-.23-7.42-.25-2.09,0-9.46.17-12.35.15s-3.26-2.88-2.07-3.13c5.32-1.13,10.37-2.71,12.08-4.23A1.65,1.65,0,0,1,265.65,411.35Z" style="fill:#263238"></path><path d="M351.79,410.84l-.78-.42.67-1.21a.47.47,0,0,0,0-.4.5.5,0,0,0-.27-.3l-1-.45.41-.56a.49.49,0,0,0,.08-.39.46.46,0,0,0-.23-.33l-1.84-1.08.68-1.26a.5.5,0,0,0-.22-.68l-1.73-.85.4-1a.49.49,0,0,0-.21-.62l-1.15-.67.77-1.26a.53.53,0,0,0,.05-.41.51.51,0,0,0-.26-.3l-2-1,.54-1.33a.55.55,0,0,0,0-.4.51.51,0,0,0-.3-.26l-1.51-.53.58-1.58a.51.51,0,0,0-.21-.6l-1.44-.88.51-2.21a.5.5,0,0,0-1-.22l-.43,1.88L340,390.43a.51.51,0,0,0-.69.17.49.49,0,0,0,.17.68l2.22,1.36-.51,2.21a.51.51,0,0,0,.32.59l1.11.39-.41,1.1a.5.5,0,0,0,.26.63l1.43.68-.49,1.21a.51.51,0,0,0,.21.62l1.63.95-.58.94a.49.49,0,0,0,.2.71l1.45.72-.5,1.17a.51.51,0,0,0,.21.63l1.51.88-.52,1a.48.48,0,0,0,0,.39.5.5,0,0,0,.27.3l1.65.74-.7,1a.48.48,0,0,0-.09.4.49.49,0,0,0,.26.33l1.27.68-.45.81a.5.5,0,0,0,.19.68.53.53,0,0,0,.24.06.5.5,0,0,0,.44-.25l.46-.83.8.43a.53.53,0,0,0,.24.06.51.51,0,0,0,.44-.26A.5.5,0,0,0,351.79,410.84Zm-9.54-16.2.34-1.45.81.49-.45,1.21Zm1.05,2.21.25-.69,1,.36-.32.79Zm1.19,2.57.31-.75,1.45.69-.49.8Zm1.31,2.6.3-.5.8.46-.2.48Zm1.1,2.53.31-.72,1.2.6-.41.76Zm1.25,2.48.24-.45,1.32.78-.2.28Zm1.2,2.5.48-.65.71.32-.41.75Z" style="fill:#fff;opacity:0.6000000000000001"></path><path d="M269.45,407.29a.48.48,0,0,0-.14-.37l-.78-.79.58-.37a.49.49,0,0,0,.22-.34.46.46,0,0,0-.1-.39l-1.32-1.67,1.09-.93a.51.51,0,0,0,0-.72l-1.3-1.41.71-.74a.49.49,0,0,0,0-.66l-.83-1,1.18-.89a.52.52,0,0,0,.19-.36.56.56,0,0,0-.13-.39l-1.53-1.62,1-1a.57.57,0,0,0,.14-.37.5.5,0,0,0-.18-.36l-1.22-1,1.11-1.26a.5.5,0,0,0,0-.63l-1-1.35,1.27-1.87a.5.5,0,1,0-.82-.57l-1.09,1.6-1.38-1.8a.5.5,0,1,0-.79.61l1.58,2.07-1.28,1.88a.49.49,0,0,0,.09.66l.89.76-.78.88a.51.51,0,0,0,0,.68L266,394.6l-.9,1a.49.49,0,0,0,0,.65l1.17,1.47-.89.67a.52.52,0,0,0-.19.36.48.48,0,0,0,.13.38l1.09,1.19-.89.92a.49.49,0,0,0,0,.65l1.08,1.37-.82.71a.5.5,0,0,0-.18.35.54.54,0,0,0,.15.38l1.27,1.28-1,.63a.51.51,0,0,0-.22.35.48.48,0,0,0,.11.4l.94,1.09-.71.59a.52.52,0,0,0-.07.71.5.5,0,0,0,.39.18.51.51,0,0,0,.32-.12l.72-.6.6.69a.49.49,0,0,0,.7.06.51.51,0,0,0,0-.71l-.58-.67,1.07-.88A.47.47,0,0,0,269.45,407.29Zm-3.69-16.63.84-1.24.57.76-.85,1Zm.17,2.43.49-.55.83.71-.58.63Zm.18,2.84.56-.6,1.11,1.18-.75.57Zm.28,2.89.46-.36.58.72-.37.38Zm.11,2.76.55-.56.91,1-.67.56Zm.27,2.76.38-.33,1,1.2-.3.19Zm.78,3.44-.57-.67.68-.44.55.56Z" style="fill:#fff;opacity:0.6000000000000001"></path><path d="M344.5,279.91c-.46,4.64-2.89,20.33-5.23,32.23-.29,1.49-.59,2.94-.87,4.28l-27-1.93c.05-.82.1-1.59.15-2.3,0-.34,0-.66.06-1,.42-6.54.67-7.67.67-7.67s-1.07.56-5.79,5.39c-.93.94-2,2.06-3.23,3.36l-.53.57-21.94-20.52,3.68-4,.15-.16c8.09-8.74,14.61-15.65,14.61-15.65l.58-11.29.28-5.66,38.74-3.06s0,.11.1.31a1.42,1.42,0,0,0,.05.16c.06.18.13.42.22.69.27.86.66,2.15,1.11,3.72C342.14,263.8,345,274.75,344.5,279.91Z" style="fill:#407BFF"></path><path d="M312.26,303.54l-1.87-14.61s-4.38,12.67-2.84,18.9Z" style="opacity:0.2"></path><path d="M344.5,279.91c-.46,4.64-2.89,20.33-5.23,32.23-.29,1.49-.59,2.94-.87,4.28l-27-1.93c.05-.82.1-1.59.15-2.3l21.3-2s6.39-25.61,6.91-31.08c.38-4-1.19-15.46-2.08-21.44l-37.87,3.59.28-5.66,38.74-3.06s0,.11.1.31a1.42,1.42,0,0,0,.05.16c.06.18.13.42.22.69.27.86.66,2.15,1.11,3.72C342.14,263.8,345,274.75,344.5,279.91Z" style="fill:#fff;opacity:0.6000000000000001"></path><path d="M303.23,312.3l-.53.57-21.94-20.52,3.68-4,.15-.16Z" style="fill:#fff;opacity:0.6000000000000001"></path><path d="M289,177c2.38,1.73-1.32,8.42-4.1,11.15l-.53,5.77s-6.4,1.16-10.62-2.57l.36-.9,1.14-2.77.59-1.45s.35-8.68,1.95-11S286.58,175.21,289,177Z" style="fill:#263238"></path><path d="M275.79,186.17s5.93,2.48,9.06,1.92a7,7,0,0,1-5.76.49C276.13,187.38,275.79,186.17,275.79,186.17Z" style="fill:#fff;opacity:0.2"></path><path d="M275.2,187.63a5,5,0,0,0,.86.55l-1,2.81a10.31,10.31,0,0,1-1-.59Z" style="fill:#407BFF"></path><path d="M333.25,233.48c-4.08,2.72-11.7,6.66-18.77,4.06s-6.56-19.62-5.56-30.11c.17-1.73.35-3.29.51-4.57.29-2.31.53-3.73.53-3.73l6.64.9a15.51,15.51,0,0,0,3,3.5l.16.61.4,1.47,1.24,4.6a45.27,45.27,0,0,1,9,1.63C330.88,217.16,331.8,225,333.25,233.48Z" style="opacity:0.2"></path><path d="M335.8,214.44a111.84,111.84,0,0,1-8.23,12.91c-.76,1-1.53,2.08-2.35,3.1L324,232c-.13.17-.37.49-.61.76a8.61,8.61,0,0,1-1,1,7.84,7.84,0,0,1-1.77,1.2,7.21,7.21,0,0,1-3.51.75,7.09,7.09,0,0,1-3.65-1.22,7.83,7.83,0,0,1-1.72-1.62,9,9,0,0,1-1.25-2.18,15.44,15.44,0,0,1-.84-2.8,38.67,38.67,0,0,1-.59-4.37c-.25-2.73-.27-5.32-.26-7.9s.12-5.12.24-7.66c.3-5.07.73-10.07,1.45-15.12a3.49,3.49,0,0,1,6.93.15v0l1.46,14.74c.5,4.85,1,9.77,1.85,14.22a25.66,25.66,0,0,0,.72,3,2.33,2.33,0,0,0,.32.74s0-.13-.32-.56a4.53,4.53,0,0,0-1.06-1,5.31,5.31,0,0,0-2.78-.91,5.4,5.4,0,0,0-2.61.53,4.91,4.91,0,0,0-1,.66l-.32.3s-.09.1,0,0l.89-1.53,1.78-3.12c2.38-4.17,4.78-8.49,7.34-12.56l0-.07a7,7,0,0,1,12.1,7Z" style="fill:#e9b376"></path><path d="M319.77,201.26l-.66-5.5s1.95-8.46,1-11.15-8.55-2.27-11.3-1.22-.94,8.47,1,11.83l-1,5.72S314.71,203.73,319.77,201.26Z" style="fill:#263238"></path><path d="M319.11,195.76s-6.37.83-9.25-.54a7,7,0,0,0,5.43,2C318.46,196.83,319.11,195.76,319.11,195.76Z" style="fill:#fff;opacity:0.2"></path><path d="M318.73,197.38s-3.84,1.09-6.5.29l-.15,2.92s4.08,1.35,6.61-.28Z" style="fill:#407BFF"></path></g><g id="freepik--character-1--inject-170"><path d="M269.56,186.36c-2.25-2.45-9.55,4-10.35,7.85s1.09,4.95,1.09,4.95-4.35-.83-5.82-.46c0,0,3-1.52,2.82-3.91s-5.92-6.24-5.92-6.24,6.37,2.38,7.1.31-2-8.83-2-8.83,4.18,3.49,5.79,4.19,3.45-4.76,3.45-4.76-.33,3.14,1.14,4.17,3.21-.25,3.21-.25Z" style="fill:#407BFF"></path><path d="M269.56,186.36c-2.25-2.45-9.55,4-10.35,7.85s1.09,4.95,1.09,4.95-4.35-.83-5.82-.46c0,0,3-1.52,2.82-3.91s-5.92-6.24-5.92-6.24,6.37,2.38,7.1.31-2-8.83-2-8.83,4.18,3.49,5.79,4.19,3.45-4.76,3.45-4.76-.33,3.14,1.14,4.17,3.21-.25,3.21-.25Z" style="fill:#fff;opacity:0.8"></path><path d="M270.73,225.14c-1.28,2.26-8-1.33-9.28-4.12s-.06-4-.06-4-3.17,1.4-4.35,1.39c0,0,2.54.62,2.85,2.47s-3.38,5.81-3.38,5.81,4.41-3,5.34-1.52.07,7.08.07,7.08a34,34,0,0,1,3.65-4.23c1.11-.83,3.48,3,3.48,3s-.81-2.32.12-3.37a2.33,2.33,0,0,1,2.49-.39Z" style="fill:#407BFF"></path><path d="M270.73,225.14c-1.28,2.26-8-1.33-9.28-4.12s-.06-4-.06-4-3.17,1.4-4.35,1.39c0,0,2.54.62,2.85,2.47s-3.38,5.81-3.38,5.81,4.41-3,5.34-1.52.07,7.08.07,7.08a34,34,0,0,1,3.65-4.23c1.11-.83,3.48,3,3.48,3s-.81-2.32.12-3.37a2.33,2.33,0,0,1,2.49-.39Z" style="fill:#fff;opacity:0.8"></path><path d="M269.33,209.73c-4.61,1.93-9.23,3.57-14,5.09a132.37,132.37,0,0,1-14.61,3.85c-1.28.24-2.57.47-3.95.64a27.51,27.51,0,0,1-4.54.26l-4.1-.26-3.65-.29c-1.78-.15-3.55-.32-5.32-.51-3.07-.31-6.13-.7-9.18-1.23a7,7,0,0,1,1.88-13.87h0c4.84.5,9.63,1.33,14.41,2.24l3.58.71,1.79.39.89.19.45.09a21.06,21.06,0,0,0,2.76.08c1,0,2.17-.09,3.29-.18,4.54-.4,9.29-1.06,14-1.75l14.31-2.12h0a3.5,3.5,0,0,1,1.87,6.68Z" style="fill:#e4897b"></path><path d="M219.19,218.51c-3.07-.31-6.13-.7-9.18-1.23a7,7,0,0,1-3.51-1.71,35.87,35.87,0,0,1,5.7-3.15S217,215.05,219.19,218.51Z" style="opacity:0.2"></path><path d="M277.22,212.26c-.77,2.84-8.34,1.78-11.88.16L259.76,214s-3.37-5.56-1.4-10.84l1,0,3,.07,1.57,0s8.22-2.78,11-2.12S278,209.42,277.22,212.26Z" style="fill:#407BFF"></path><path d="M263.89,203.27s-.19,6.42,1.45,9.15a7,7,0,0,1-2.52-5.21C262.89,204,263.89,203.27,263.89,203.27Z" style="opacity:0.2"></path><path d="M262.32,203.24a6.57,6.57,0,0,0-.21,1l-3,.08a9.76,9.76,0,0,1,.19-1.15Z" style="fill:#fff;opacity:0.6000000000000001"></path><path d="M216.45,204.28c-10.7,25-13.52,55.27-14.9,60.76l-36.13-7.4c0-4.21.18-8.18.45-11.91,1.33-18.88,5.37-31.82,8.38-39.14a34.32,34.32,0,0,0,2.35-9s6.51,1.43,12,2c4.14.46,10.66,2.8,15.36,3.15C211,203.27,216.45,204.28,216.45,204.28Z" style="fill:#e4897b"></path><path d="M195.2,215s-13.26,37.19-29.33,30.73c1.33-18.88,5.37-31.82,8.38-39.14a28,28,0,0,1,7.3.45l1,5Z" style="opacity:0.2"></path><path d="M181.81,206.29l-.82,3.25-.81,3.34c-.53,2.22-1,4.44-1.42,6.62a56.31,56.31,0,0,0-.87,6.29,22.49,22.49,0,0,0-.06,2.67,4.22,4.22,0,0,0,0,.53l0,.24a.14.14,0,0,0,0,0,.75.75,0,0,0-.11-.22,2.68,2.68,0,0,0-.28-.46,4.64,4.64,0,0,0-1.67-1.43,4.56,4.56,0,0,0-2.39-.48,2.38,2.38,0,0,0-.94.25c-.22.13,0,.09.26-.06a12.82,12.82,0,0,0,2.08-1.58,65.13,65.13,0,0,0,4.71-4.7c3.13-3.41,6.25-7.11,9.36-10.7l.06-.07a3.5,3.5,0,0,1,5.85,3.69,98.26,98.26,0,0,1-7.05,13.33,60.76,60.76,0,0,1-4.65,6.44,25.33,25.33,0,0,1-3.33,3.28,12.39,12.39,0,0,1-2.89,1.75,8.7,8.7,0,0,1-2.7.66,7.68,7.68,0,0,1-4.16-.83,8.1,8.1,0,0,1-3-2.66,10,10,0,0,1-.72-1.25c-.18-.38-.3-.71-.44-1.07s-.19-.63-.28-.92l-.16-.65c-.12-.45-.19-.86-.27-1.27a31,31,0,0,1-.47-4.59,55.81,55.81,0,0,1,.43-8.2c.31-2.62.77-5.17,1.3-7.68.28-1.25.57-2.5.9-3.74s.66-2.42,1.1-3.77a7,7,0,0,1,13.45,3.84Z" style="fill:#e4897b"></path><path d="M202.3,202.61a3.29,3.29,0,0,0,1.21,2.32l-4.88.66-13.72-5.54c8.31-2,12-12.32,12-12.32l2.32,2.69,6.26,7.26C202.87,199.71,202.22,201.39,202.3,202.61Z" style="fill:#e4897b"></path><path d="M205.48,197.68c-2.61,2-3.26,3.71-3.18,4.93-5-3-5.4-12.49-5.4-12.49.8.07,1.58.17,2.32.3Z" style="opacity:0.2"></path><path d="M215,173.83c4.89,2.78,1.45,14.23-1,15.12C209.41,190.62,208.89,170.38,215,173.83Z" style="fill:#263238"></path><path d="M197.17,181.75c-.38,6.83-.95,10.81,2.07,14.69,4.55,5.84,13.28,3.71,15.69-2.87,2.17-5.93,2.42-16.11-3.9-19.58A9.33,9.33,0,0,0,197.17,181.75Z" style="fill:#e4897b"></path><path d="M201.5,179.74c.62,5.6-.92,11.31-3.7,11.24-2.17-.07-4.55-6.38-5.33-11.2Z" style="fill:#263238"></path><path d="M193.23,188.87a6.53,6.53,0,0,0,3.69,3.32c2.16.74,3.37-1.15,2.89-3.26-.44-1.89-2.09-4.57-4.3-4.4A2.92,2.92,0,0,0,193.23,188.87Z" style="fill:#e4897b"></path><path d="M207.24,184.84c-.07.56.17,1,.53,1.08s.71-.37.77-.92-.17-1-.53-1.08S207.3,184.29,207.24,184.84Z" style="fill:#263238"></path><path d="M213.48,185.57c-.07.55.17,1,.54,1.08s.7-.37.77-.92-.18-1-.54-1.08S213.54,185,213.48,185.57Z" style="fill:#263238"></path><path d="M211.46,185.62a20.1,20.1,0,0,0,2.09,5,3.19,3.19,0,0,1-2.7.18Z" style="fill:#de5753"></path><path d="M206.26,190.66a.17.17,0,0,0-.18.13.16.16,0,0,0,.13.19,4.42,4.42,0,0,1,3.17,2.41.17.17,0,0,0,.21.1.17.17,0,0,0,.1-.22,4.71,4.71,0,0,0-3.41-2.61Z" style="fill:#263238"></path><path d="M206.72,182.35a.35.35,0,0,0,.23.12,2.6,2.6,0,0,1,2.08,1.11.33.33,0,0,0,.45.12.33.33,0,0,0,.11-.45,3.23,3.23,0,0,0-2.61-1.44.32.32,0,0,0-.34.31A.36.36,0,0,0,206.72,182.35Z" style="fill:#263238"></path><path d="M216,182.35a.22.22,0,0,0,0-.11.32.32,0,0,0-.31-.34,3.2,3.2,0,0,0-2.73,1.19.32.32,0,0,0,.07.45.33.33,0,0,0,.46-.07,2.57,2.57,0,0,1,2.17-.92A.32.32,0,0,0,216,182.35Z" style="fill:#263238"></path><path d="M201,183.6a15.1,15.1,0,0,0,2.68-6.88c.22-3.56,7.91.69,7.91.69l4.83-2.11a22.74,22.74,0,0,0-7.71-9.16v1.58l-11.69-3-3.53,8.68-1.68-2.65s-.66,11.69,1.06,12.82S201,183.6,201,183.6Z" style="fill:#263238"></path><path d="M201,196.6s2.76-7.13,4.5-8.26,4.11,2.72,4.11,2.72h-.49s-1.55-2-2.56-2-4.07,6.16-3.28,7.15,3.33,1.48,3.33,1.48l1.91-2.57,1.09.3-.49,2.27a11.89,11.89,0,0,0,1.7-.89c.77-.49.67-4.47.67-4.47l-1.88-.47.84-.3s1.72.3,2,.77a55.58,55.58,0,0,1,0,6.06s-4.47,3.16-7,2.57S200.1,198.85,201,196.6Z" style="fill:#263238"></path><path d="M184.12,213.64l3.43-4.35s2.73-8.24,4.92-10.06,8.48,2.5,10.29,4.83-3.61,7.73-7,9.58l-2.11,5.4S187.15,218.38,184.12,213.64Z" style="fill:#407BFF"></path><path d="M187.55,209.29s5,4,8.18,4.35a7,7,0,0,1-5.67-1.12C187.55,210.54,187.55,209.29,187.55,209.29Z" style="opacity:0.2"></path><path d="M187,210.87s2.72,2.93,5.41,3.62L191,217.07s-4.19-1-5.5-3.68Z" style="fill:#fff;opacity:0.6000000000000001"></path><path d="M160.67,278.91c0,.79,2.51,41.67,5.2,55.91,0,0-10.87,12-24.4,57.54l7.84,3.65s34.77-47.57,35.58-55S187,293.42,187,293.42Z" style="fill:#e4897b"></path><path d="M202.32,276.8s32.55,40.94,34.63,47.53-10.75,74.56-10.75,74.56h-8.32s-4.48-40.33,1.05-63.27c0,0-28-30.33-33.23-40.88Z" style="fill:#e4897b"></path><polygon points="132.69 411.62 142.95 382.4 156.43 388.23 140.95 414.64 132.69 411.62" style="fill:#407BFF"></polygon><path d="M140.88,411.35l-7.75,0a.6.6,0,0,0-.58.47L131.22,418a1,1,0,0,0,1,1.22c2.7-.06,4-.23,7.42-.25,2.09,0,9.46.17,12.35.15s3.26-2.88,2.07-3.13c-5.32-1.13-10.37-2.71-12.08-4.23A1.65,1.65,0,0,0,140.88,411.35Z" style="fill:#407BFF"></path><polygon points="215.27 416.16 216.36 385.46 229.5 385.07 224.07 416.3 215.27 416.16" style="fill:#407BFF"></polygon><path d="M224.13,411.35l-7.75,0a.6.6,0,0,0-.58.47L214.47,418a1,1,0,0,0,1,1.22c2.7-.06,4-.23,7.42-.25,2.1,0,9.46.17,12.35.15s3.26-2.88,2.07-3.13c-5.32-1.13-10.37-2.71-12.08-4.23A1.65,1.65,0,0,0,224.13,411.35Z" style="fill:#407BFF"></path><path d="M140.47,410.29a.5.5,0,0,1-.19-1l2.55-1.08-1.31-2.16a.51.51,0,0,1-.05-.4.53.53,0,0,1,.26-.31l4-1.88-.85-2.67a.5.5,0,0,1,.27-.6l3.45-1.61-1-3.11a.51.51,0,0,1,.05-.4.49.49,0,0,1,.31-.23l3.25-.82-.66-4.77a.51.51,0,0,1,.43-.57.5.5,0,0,1,.56.43l.72,5.22a.51.51,0,0,1-.37.55l-3.18.8.92,3a.5.5,0,0,1-.27.6L146,401l.85,2.67a.5.5,0,0,1-.26.6l-3.88,1.83,1.33,2.18a.49.49,0,0,1,0,.41.48.48,0,0,1-.28.31l-3.08,1.3A.48.48,0,0,1,140.47,410.29Z" style="fill:#263238"></path><path d="M142.35,411.06a.5.5,0,0,1-.46-.3l-1.36-3a.55.55,0,0,1,0-.4.52.52,0,0,1,.3-.28l3.42-1.18-1.15-2.7a.53.53,0,0,1,0-.39.5.5,0,0,1,.28-.27l3.67-1.41-1.36-2.75a.47.47,0,0,1,0-.4.49.49,0,0,1,.29-.29l4-1.49-.89-3.3a.51.51,0,0,1,.26-.58l4.5-2.21a.5.5,0,1,1,.44.89l-4.13,2,.9,3.34a.5.5,0,0,1-.31.6l-3.94,1.46,1.35,2.73a.49.49,0,0,1,0,.41.48.48,0,0,1-.28.28l-3.7,1.43,1.16,2.71a.47.47,0,0,1,0,.4.48.48,0,0,1-.29.27l-3.42,1.18,1.13,2.54a.49.49,0,0,1-.25.66A.53.53,0,0,1,142.35,411.06Z" style="fill:#263238"></path><path d="M222,410.92a.52.52,0,0,1-.35-.14.5.5,0,0,1,0-.71l1.94-2-2-1.5a.49.49,0,0,1-.2-.35.48.48,0,0,1,.13-.39l3-3.25-1.81-2.15a.5.5,0,0,1,0-.66l2.57-2.8-2.06-2.52a.47.47,0,0,1-.11-.38.55.55,0,0,1,.2-.34l2.69-2-2.42-4.16a.5.5,0,1,1,.86-.5l2.65,4.54a.51.51,0,0,1-.13.66l-2.63,1.94,2,2.45a.5.5,0,0,1,0,.66l-2.57,2.8,1.81,2.14a.5.5,0,0,1,0,.66l-2.88,3.17,2,1.5a.49.49,0,0,1,.2.37.49.49,0,0,1-.14.39l-2.35,2.38A.51.51,0,0,1,222,410.92Z" style="fill:#263238"></path><path d="M224,410.91a.47.47,0,0,1-.34-.14l-2.41-2.29a.52.52,0,0,1-.16-.37.53.53,0,0,1,.17-.37l2.72-2.4-2.1-2a.48.48,0,0,1-.15-.36.48.48,0,0,1,.16-.36l2.85-2.7-2.31-2a.52.52,0,0,1-.17-.37.51.51,0,0,1,.16-.37l3.17-2.92-2.08-2.72a.49.49,0,0,1,0-.63l3.31-3.76a.51.51,0,0,1,.71-.05.51.51,0,0,1,0,.71l-3,3.45,2.11,2.75a.49.49,0,0,1-.06.67l-3.09,2.85,2.3,2a.49.49,0,0,1,.17.36.47.47,0,0,1-.16.37L223,402.94l2.11,2.07a.5.5,0,0,1,0,.73l-2.71,2.39,2,1.92a.5.5,0,0,1,0,.71A.51.51,0,0,1,224,410.91Z" style="fill:#263238"></path><path d="M220.25,294.61l-23.34,18.91c-1.34-1.65-2.49-3-3.47-4.19-4.37-5.15-5.4-5.79-5.4-5.79s.17,1.15.13,7.7c0,1,0,2.06,0,3.28H161.05c-.19-1.36-.38-2.82-.57-4.33-1.49-12-2.79-27.86-2.92-32.52-.15-5.18,3.49-15.9,5.8-22.13,1-2.86,1.83-4.77,1.83-4.77l38.42,5.81-.12,5.67-.23,11.3s6.09,7.44,13.6,16.82Z" style="fill:#263238"></path><path d="M203.61,256.58l-.12,5.67-40.13-6.71c1-2.86,1.83-4.77,1.83-4.77Z" style="fill:#fff;opacity:0.6000000000000001"></path><path d="M160.48,310.19c7.53.27,21.71.82,27.69,1.05,0,1,0,2.06,0,3.28H161.05C160.86,313.16,160.67,311.7,160.48,310.19Z" style="fill:#fff;opacity:0.6000000000000001"></path><path d="M220.25,294.61l-23.34,18.91c-1.34-1.65-2.49-3-3.47-4.19l23.42-19Z" style="fill:#fff;opacity:0.6000000000000001"></path><path d="M188,303.54l2.9-14.45s3.47,13,1.49,19.06Z" style="opacity:0.2"></path></g></svg>